<svg width="104" height="25" viewBox="0 0 104 25" fill="none" xmlns="http://www.w3.org/2000/svg">
<path d="M0.4375 2.27544H7.11002C11.3639 2.27544 14.878 4.74203 14.878 10.3739V11.5573C14.878 17.2319 11.5916 19.784 7.23806 19.784H0.4375V2.27544ZM4.165 5.45492V16.5903H7.02465C9.44327 16.5903 11.0652 15.0076 11.0652 11.486V10.5592C11.0652 7.03754 9.3579 5.45492 6.89661 5.45492H4.165ZM16.8556 5.62602H19.8433L20.327 8.91956C20.8961 6.68109 22.3473 5.48344 24.9793 5.48344H25.904V9.26175H24.3675C21.3371 9.26175 20.5973 10.3168 20.5973 13.311V19.8268H16.9125V5.62602H16.8556ZM26.6439 13.0115V12.6123C26.6439 7.86449 29.6742 5.26957 33.8001 5.26957C38.0113 5.26957 40.9563 7.86449 40.9563 12.6123V13.0115C40.9563 17.6738 38.0967 20.1832 33.8001 20.1832C29.2332 20.1404 26.6439 17.6881 26.6439 13.0115ZM37.1861 12.9688V12.6123C37.1861 9.97464 35.863 8.39203 33.7574 8.39203C31.6945 8.39203 30.3287 9.84632 30.3287 12.6123V12.9688C30.3287 15.5209 31.6518 16.9752 33.7574 16.9752C35.863 16.9324 37.1861 15.5209 37.1861 12.9688ZM42.8912 5.62602H45.9643L46.32 8.30648C47.0598 6.51 48.639 5.26957 50.9722 5.26957C54.5717 5.26957 56.9476 7.86449 56.9476 12.6694V13.0686C56.9476 17.7309 54.3156 20.1975 50.9722 20.1975C48.7386 20.1975 47.202 19.1852 46.448 17.5598V24.7314H42.8485L42.8912 5.62602ZM53.2059 12.9688V12.6551C53.2059 9.83206 51.7547 8.4348 49.8198 8.4348C47.7569 8.4348 46.3911 10.0174 46.3911 12.6551V12.926C46.3911 15.4354 47.7142 17.018 49.7772 17.018C51.897 16.9752 53.2059 15.6207 53.2059 12.9688ZM62.3966 17.2033L62.0836 19.7983H58.9252V0.878174H62.5247V8.13539C63.3214 6.28187 64.9006 5.26957 67.1342 5.26957C70.5203 5.31234 73.0243 7.65062 73.0243 12.3557V12.7977C73.0243 17.5028 70.6483 20.1975 67.0489 20.1975C64.673 20.1404 63.1364 19.0426 62.3966 17.2033ZM69.2399 12.7977V12.4412C69.2399 9.84632 67.8314 8.39203 65.8538 8.39203C63.8335 8.39203 62.4251 10.0174 62.4251 12.484V12.7977C62.4251 15.4354 63.7909 16.9752 65.8111 16.9752C67.9736 16.9752 69.2399 15.6207 69.2399 12.7977ZM74.6035 13.0115V12.6123C74.6035 7.86449 77.6339 5.26957 81.7597 5.26957C85.9709 5.26957 88.916 7.86449 88.916 12.6123V13.0115C88.916 17.6738 86.0136 20.1832 81.7597 20.1832C77.1928 20.1404 74.6035 17.6881 74.6035 13.0115ZM85.1742 12.9688V12.6123C85.1742 9.97464 83.8511 8.39203 81.7455 8.39203C79.6826 8.39203 78.3167 9.84632 78.3167 12.6123V12.9688C78.3167 15.5209 79.6399 16.9752 81.7455 16.9752C83.8653 16.9324 85.1742 15.5209 85.1742 12.9688ZM93.739 12.4412L88.7737 5.62602H93.0276L95.8872 9.88909L98.7896 5.62602H103.001L97.9644 12.3985L103.271 19.7983H99.1026L95.8588 15.0932L92.7004 19.7983H88.3469L93.739 12.4412Z" fill="black"/>
</svg>
